<?xml version="1.0" encoding="UTF-8"?>
<svg width="500px" height="500px" viewBox="0 0 500 500" version="1.1" xmlns="http://www.w3.org/2000/svg" xmlns:xlink="http://www.w3.org/1999/xlink">
    <!-- Generator: Sketch 62 (91390) - https://sketch.com -->
    <title>illustration-cloudintegration</title>
    <desc>Created with Sketch.</desc>
    <defs>
        <rect id="path-1" x="0" y="0" width="500" height="500"></rect>
        <linearGradient x1="50%" y1="-3.42881944%" x2="50%" y2="79.9893969%" id="linearGradient-3">
            <stop stop-color="#3f50b5" stop-opacity="0.320476399" offset="0%"></stop>
            <stop stop-color="#FFFFFF" stop-opacity="0.59" offset="99.9656883%"></stop>
        </linearGradient>
    </defs>
    <g id="Page-1" stroke="none" stroke-width="1" fill="none" fill-rule="evenodd">
        <g id="Product-detail__Cloud-Integration-Option-Pack" transform="translate(-74.000000, -772.000000)">
            <g id="illustration-cloudintegration" transform="translate(74.000000, 772.000000)">
                <mask id="mask-2" fill="white">
                    <use xlink:href="#path-1"></use>
                </mask>
                <use id="Rectangle" fill="#FFFFFF" xlink:href="#path-1"></use>
                <polygon id="Polygon" fill-opacity="0.32" fill="url(#linearGradient-3)" points="250 16 452.649944 133 452.649944 367 250 484 47.3500555 367 47.3500555 133"></polygon>
                <g id="cloud-rainbow" transform="translate(45.000000, 107.000000)" fill="#FFFFFF">
                    <path d="M415,193.154806 C415,240.565798 376.558242,279 329.137931,279 L85.862069,279 C38.4417577,279 0,240.565798 0,193.154806 C0,147.907235 35.0603448,111.244184 79.5118534,107.935567 C79.3329741,105.342327 78.7068966,102.838508 78.7068966,100.155846 C78.6552982,52.9714223 111.587613,12.1663668 157.72648,2.2459798 C203.865348,-7.67440725 250.664255,15.987519 270.018319,59.0216907 C287.615465,47.8108923 309.929225,47.0952632 328.208826,57.1554511 C346.488427,67.2156391 357.819605,86.4477777 357.758621,107.309612 C357.607933,108.990194 357.369099,110.661706 357.043103,112.317249 C390.672414,123.942119 415,155.597534 415,193.154806 Z" id="Path"></path>
                </g>
                <g id="Bottom/Standing/Skinny-Jeans" transform="translate(144.000000, 232.000000)">
                    <polygon id="Leg" fill="#757ce8" points="128 9.9475983e-14 164.254962 127.226909 190.706957 221 210 221 181.890974 9.9475983e-14"></polygon>
                    <polygon id="Leg" fill-opacity="0.1" fill="#000000" points="128 0 164.254962 127.226909 190.706957 221 210 221 181.890974 0"></polygon>
                    <path d="M118.304342,0 C117.465768,65.5742244 114.606247,101.340188 113.725779,107.297892 C112.845311,113.255595 99.5321718,151.156298 73.7863613,221 L93.7726468,221 C126.549033,153.996902 144.845651,116.096199 148.662499,107.297892 C152.479348,98.4995844 164.258515,62.7336205 182,0 L118.304342,0 Z" id="Leg" fill="#757ce8"></path>
                    <g id="Accessories/Shoe/Heels" transform="translate(72.000000, 199.000000)" fill="#3f50b5">
                        <path d="M0,40 L1,19 L22,19 C31.9576033,26 44.9576033,31.6666667 61,36 L61,40 L23,40 L10,27.5380859 L10,40 L0,40 Z" id="Shoe"></path>
                    </g>
                    <g id="Accessories/Shoe/Heels" transform="translate(188.000000, 199.000000)" fill="#3f50b5">
                        <path d="M0,40 L1,19 L22,19 C31.9576033,26 44.9576033,31.6666667 61,36 L61,40 L23,40 L10,27.5380859 L10,40 L0,40 Z" id="Shoe"></path>
                    </g>
                </g>
                <g id="Head/Front/PonyTail-Glasses-Up" transform="translate(231.000000, 22.000000)">
                    <g id="Head/Front/Top">
                        <g id="Head" stroke-width="1" transform="translate(54.000000, 31.000000)" fill="#757ce8">
                            <path d="M38.1433414,9.13393292 C43.9381521,19.9350547 43.249578,47.3329958 35.7603014,49.2634576 C32.773664,50.0333035 26.4113241,48.1475566 19.935865,44.2446031 L24,73 L0,73 L8.26160177,34.4893378 C3.65406109,29.0807313 0.535660132,22.452516 1.05677633,15.0254539 C2.55833022,-6.37502057 32.3485306,-1.66718886 38.1433414,9.13393292 Z"></path>
                        </g>
                        <path d="M52,16 C60.2842712,16 67,22.7157288 67,31 L66.9973324,30.7869626 C79.0540462,26.6094246 94.7009761,31.4903648 92.6071441,41.2806601 C91.2626171,47.5673707 83.9814383,50.7073555 76.818281,54.067812 C75.7649022,52.2369923 73.7540137,51 71.4466684,51 C68.0464589,51 65.2900445,53.6862915 65.2900445,57 C65.2900445,58.1935612 65.647651,59.3057239 66.2641422,60.2402777 C63.8547022,62.3363574 62.1544354,64.8594168 61.7432388,68.1317726 C57.8594273,68.1317726 51.5820729,56.7283038 53.6546875,45.9093462 C53.1114025,45.9693919 52.5592757,46 52,46 C43.7157288,46 37,39.2842712 37,31 C37,22.7157288 43.7157288,16 52,16 Z" id="Hair" fill="#3f50b5"></path>
                        <path d="M91.0876728,52.2658622 C92.4431243,48.1990508 94.4066456,45.6853454 97.3403908,46.3626538 C100.837382,47.1699979 101.107823,51.448087 99.91903,56.9725447 L99.91903,56.9725447 L99.7783108,57.60316 C98.4329828,63.4304159 96.2885626,67.4751561 92.6596092,66.6373462 C89.2312239,65.845841 88.9040304,61.7184376 90.0127009,56.3511462 C79.748799,52.7837219 73.6296833,51 71.6542969,51 C70.5694908,51 69.4096582,51.4246691 68.1747991,52.2740073 C67.6319491,52.6473313 66.8892348,52.509949 66.5158773,51.9671219 C66.294742,51.6456115 66.2448327,51.2362721 66.3822368,50.8710463 L66.6020499,50.2867741 C67.510668,47.8716297 70.1079229,46.5446134 72.5974079,47.2235639 Z M96.6871329,49.1922245 C95.6108735,48.9437504 93.9830376,52.0141249 93.0512599,56.0500979 L93.0512599,56.0500979 L92.9849516,56.3443701 C92.1257661,60.2535784 92.2628579,63.5653618 93.3128671,63.8077755 C94.3891265,64.0562496 96.0169624,60.9858751 96.9487401,56.9499021 C97.8805179,52.9139292 97.7633924,49.4406986 96.6871329,49.1922245 Z" id="Combined-Shape" fill="#3f50b5"></path>
                    </g>
                </g>
                <g id="Body/Trench-Coat" transform="translate(169.000000, 117.000000)">
                    <path d="M54.3748075,70.4422362 L71.7206892,74.8517457 C48.5010655,113.888004 36.0840272,134.518222 34.4695742,136.742401 C30.8370549,141.746803 33.4753713,151.405575 34.3717289,156.466114 C27.0159775,157.777312 30.4552622,146.986888 21.1392043,148.78923 C12.6359386,150.434324 5.23841582,155.412199 -2.21044035,147.785504 C-3.12623345,146.847846 -3.68533756,144.037711 -0.329858103,142.787288 C8.0298649,139.672029 20.4540206,133.669529 22.5472206,131.196025 C25.4016727,127.82296 36.0108683,107.571697 54.3748075,70.4422362 L54.3748075,70.4422362 Z M197.692975,90.2442388 L227.879596,115.83589 C236.347145,118.768177 243.354953,122.169788 248.90302,126.040723 C250.183668,127.382731 251.660283,130.022417 246.018183,129.189525 C240.376083,128.356632 234.403982,127.734299 233.485976,129.614404 C232.56797,131.49451 235.838922,134.048404 234.074175,136.548369 C232.897677,138.215012 228.219551,133.502554 220.039797,122.410996 L189.442799,107.140857 L197.692975,90.2442388 Z" id="Skin" fill="#757ce8" transform="translate(123.586250, 113.509597) rotate(-4.000000) translate(-123.586250, -113.509597) "></path>
                    <path d="M138.264162,2.04144427 C153.1728,32.8586321 173.34952,62.4239679 203.321564,87.6788376 C207.426219,87.3835185 211.889688,88.0634542 216.675075,89.6758318 C219.030261,90.4693828 220.296216,93.0219384 219.502665,95.3771242 C219.041858,96.7447568 217.987913,97.7450999 216.723906,98.188165 C217.638754,98.8563073 218.562849,99.520867 219.495159,100.181671 L211.447983,116.609623 C177.58505,99.7255288 145.757134,86.9958405 131.253857,59.1215578 C126.386182,49.766228 128.033751,17.9882599 127.569134,6.42756866 L138.264162,2.04144427 Z" id="Back-Arm" fill="#3f50b5"></path>
                    <path d="M90,113.909745 C121.438326,117.363418 146.183737,117.363418 164.236234,113.909745 C166.472817,113.481858 166.374598,103.840401 165.337385,101.207228 C149.185283,60.2018743 138.560302,30.1840325 138.560302,1.70263734 C135.596594,3.25072994 130.409827,3.48273097 123,2.39864042 C103.086202,31.7496339 93.9325378,65.4265407 90,113.909745 Z" id="Shirt" fill="#757ce8"></path>
                    <path d="M126.348425,-1.0658141e-14 C123,44.2807404 169.249642,140.9549 153.190593,223.518112 C123.507857,230.146789 81.1319105,209.522766 39.8828129,226 C41.4177174,192.750378 72.1641281,153.689543 84.1591577,118.756122 C83.0907846,117.752921 82.5343434,116.247171 82.8078928,114.695795 L83.3288374,111.741372 C83.6816959,109.740212 85.3063314,108.28273 87.2249777,108.053567 C87.5631559,106.554137 87.8526566,105.063334 88.0917371,103.583451 C90.1104671,91.0877276 86.6615358,78.8352569 86.8232868,66.8032625 C70.7430616,80.5217718 56.3180199,104.211352 43.5479488,137.871041 L43.5479488,137.871041 L24.6611622,132.313477 C25.3819892,129.635524 26.1286459,126.990471 26.9011324,124.378317 C24.72195,123.144957 22.1728798,117.466228 24.0066041,116.516161 C25.8996562,115.535355 27.905105,114.844989 30.0170446,114.438594 C47.3349841,62.2796711 75.6543384,24.1331607 114.975674,-4.19220214e-13 L114.975674,-4.19220214e-13 Z" id="Coat-Front" fill="#3f50b5"></path>
                    <polygon id="Shade-Lapel" fill-opacity="0.1" fill="#000000" points="119.105759 1 113.946604 16.8654451 124.335997 28.7590435 114.946604 38.1055065 137.662251 77 109.883587 38.1832119 119.105759 28.7590435 109.883587 18.2484583"></polygon>
                    <path d="M137,130 C139.209139,130 141,131.790861 141,134 C141,136.209139 139.209139,138 137,138 C134.790861,138 133,136.209139 133,134 C133,131.790861 134.790861,130 137,130 Z M136,107 C138.209139,107 140,108.790861 140,111 C140,113.209139 138.209139,115 136,115 C133.790861,115 132,113.209139 132,111 C132,108.790861 133.790861,107 136,107 Z M131,84 C133.209139,84 135,85.790861 135,88 C135,90.209139 133.209139,92 131,92 C128.790861,92 127,90.209139 127,88 C127,85.790861 128.790861,84 131,84 Z" id="Buttons" fill-opacity="0.4" fill="#000000"></path>
                </g>
                <g id="key-skeleton" transform="translate(112.000000, 372.000000) rotate(-6.000000) translate(-112.000000, -372.000000) translate(12.000000, 272.000000)" fill-rule="nonzero">
                    <path d="M98.1679688,145.667969 C99.3403798,146.840112 99.9990559,148.43004 99.9990559,150.087891 C99.9990559,151.745741 99.3403798,153.335669 98.1679688,154.507812 L92.0078125,160.667969 C89.5673674,163.106815 85.6123201,163.106815 83.171875,160.667969 L68.75,146.25 L56.6914063,158.304688 L70.796875,172.410156 C71.969286,173.5823 72.6279622,175.172228 72.6279622,176.830078 C72.6279622,178.487928 71.969286,180.077857 70.796875,181.25 L53.9375,198.113281 C51.4970549,200.552127 47.5420076,200.552127 45.1015625,198.113281 L30.9921875,184.007812 L16.828125,198.167969 C14.3876799,200.606815 10.4326326,200.606815 7.9921875,198.167969 L1.83203125,192.007812 C0.659620236,190.835669 0.000944082236,189.245741 0.000944082236,187.587891 C0.000944082236,185.93004 0.659620236,184.340112 1.83203125,183.167969 L101.488281,83.5117188 C104.022367,90.4849766 109.515023,95.9776327 116.488281,98.5117188 L83.75,131.25 L98.1679688,145.667969 L98.1679688,145.667969 Z" id="Path" fill="#757ce8"></path>
                    <path d="M175,0 L125,0 C111.192881,0 100,11.1928813 100,25 L100,75 C100,88.8071187 111.192881,100 125,100 L175,100 C188.807119,100 200,88.8071187 200,75 L200,25 C200,11.1928813 188.807119,0 175,0 Z M146.339844,71.3398438 C142.765079,74.9153724 137.388397,75.9853088 132.717139,74.0507027 C128.045881,72.1160967 125.000065,67.5579742 125.000065,62.5019531 C125.000065,57.4459321 128.045881,52.8878095 132.717139,50.9532035 C137.388397,49.0185975 142.765079,50.0885339 146.339844,53.6640625 C151.220139,58.5454001 151.220139,66.4585062 146.339844,71.3398438 Z M171.339844,46.3398438 C167.765079,49.9153724 162.388397,50.9853088 157.717139,49.0507027 C153.045881,47.1160967 150.000065,42.5579742 150.000065,37.5019531 C150.000065,32.4459321 153.045881,27.8878095 157.717139,25.9532035 C162.388397,24.0185975 167.765079,25.0885339 171.339844,28.6640625 C176.220139,33.5454001 176.220139,41.4585062 171.339844,46.3398438 Z" id="Shape" fill="#3f50b5"></path>
                </g>
            </g>
        </g>
    </g>
</svg>